<mxfile host="app.diagrams.net" agent="Mozilla/5.0 (Windows NT 10.0; Win64; x64) AppleWebKit/537.36 (KHTML, like Gecko) Chrome/131.0.0.0 Safari/537.36" version="26.0.6">
  <diagram name="Page-1" id="MVJViMs7IvUMKdB28RYd">
    <mxGraphModel dx="-591" dy="1294" grid="1" gridSize="10" guides="1" tooltips="1" connect="1" arrows="1" fold="1" page="1" pageScale="1" pageWidth="827" pageHeight="1169" math="0" shadow="0">
      <root>
        <mxCell id="0" />
        <mxCell id="1" parent="0" />
        <mxCell id="hIh9DsLrqrpceg6YFJwU-3" value="Manager" style="html=1;whiteSpace=wrap;" parent="1" vertex="1">
          <mxGeometry x="880" y="-804" width="90" height="40" as="geometry" />
        </mxCell>
        <mxCell id="hIh9DsLrqrpceg6YFJwU-5" value="1.1&lt;div&gt;Add Trainer&lt;/div&gt;" style="ellipse;whiteSpace=wrap;html=1;aspect=fixed;" parent="1" vertex="1">
          <mxGeometry x="1130" y="-1060" width="80" height="80" as="geometry" />
        </mxCell>
        <mxCell id="hIh9DsLrqrpceg6YFJwU-6" value="2.0&lt;div&gt;Add Member&lt;/div&gt;" style="ellipse;whiteSpace=wrap;html=1;aspect=fixed;" parent="1" vertex="1">
          <mxGeometry x="1130" y="-950" width="80" height="80" as="geometry" />
        </mxCell>
        <mxCell id="hIh9DsLrqrpceg6YFJwU-7" value="3.0&lt;div&gt;Collect fees&lt;/div&gt;" style="ellipse;whiteSpace=wrap;html=1;aspect=fixed;" parent="1" vertex="1">
          <mxGeometry x="1130" y="-830" width="80" height="80" as="geometry" />
        </mxCell>
        <mxCell id="hIh9DsLrqrpceg6YFJwU-8" value="5.0&lt;div&gt;Pay Salary&lt;/div&gt;" style="ellipse;whiteSpace=wrap;html=1;aspect=fixed;" parent="1" vertex="1">
          <mxGeometry x="1130" y="-610" width="80" height="80" as="geometry" />
        </mxCell>
        <mxCell id="hIh9DsLrqrpceg6YFJwU-10" value="4.0&lt;div&gt;Assign Trainer&lt;/div&gt;" style="ellipse;whiteSpace=wrap;html=1;aspect=fixed;" parent="1" vertex="1">
          <mxGeometry x="1130" y="-720" width="80" height="80" as="geometry" />
        </mxCell>
        <mxCell id="hIh9DsLrqrpceg6YFJwU-14" value="Trainer" style="shape=partialRectangle;whiteSpace=wrap;html=1;left=0;right=0;fillColor=none;" parent="1" vertex="1">
          <mxGeometry x="1400" y="-1037.5" width="120" height="35" as="geometry" />
        </mxCell>
        <mxCell id="hIh9DsLrqrpceg6YFJwU-15" value="Member" style="shape=partialRectangle;whiteSpace=wrap;html=1;left=0;right=0;fillColor=none;" parent="1" vertex="1">
          <mxGeometry x="1400" y="-922.5" width="120" height="35" as="geometry" />
        </mxCell>
        <mxCell id="hIh9DsLrqrpceg6YFJwU-16" value="Fees" style="shape=partialRectangle;whiteSpace=wrap;html=1;left=0;right=0;fillColor=none;" parent="1" vertex="1">
          <mxGeometry x="1402" y="-812.5" width="120" height="35" as="geometry" />
        </mxCell>
        <mxCell id="hIh9DsLrqrpceg6YFJwU-17" value="TrainerAllocation" style="shape=partialRectangle;whiteSpace=wrap;html=1;left=0;right=0;fillColor=none;" parent="1" vertex="1">
          <mxGeometry x="1402" y="-697.5" width="120" height="35" as="geometry" />
        </mxCell>
        <mxCell id="hIh9DsLrqrpceg6YFJwU-18" value="Salary" style="shape=partialRectangle;whiteSpace=wrap;html=1;left=0;right=0;fillColor=none;" parent="1" vertex="1">
          <mxGeometry x="1402" y="-587.5" width="120" height="35" as="geometry" />
        </mxCell>
        <mxCell id="hIh9DsLrqrpceg6YFJwU-19" value="" style="endArrow=classic;html=1;rounded=0;entryX=0;entryY=0.5;entryDx=0;entryDy=0;exitX=0.187;exitY=0.076;exitDx=0;exitDy=0;exitPerimeter=0;" parent="1" target="hIh9DsLrqrpceg6YFJwU-5" edge="1" source="hIh9DsLrqrpceg6YFJwU-3">
          <mxGeometry width="50" height="50" relative="1" as="geometry">
            <mxPoint x="920" y="-820" as="sourcePoint" />
            <mxPoint x="980" y="-867.5" as="targetPoint" />
            <Array as="points">
              <mxPoint x="900" y="-1020" />
            </Array>
          </mxGeometry>
        </mxCell>
        <mxCell id="gQEP2GHuCsxXEz0Sh5r--2" value="" style="endArrow=classic;html=1;rounded=0;entryX=0;entryY=0.5;entryDx=0;entryDy=0;exitX=0.198;exitY=1.041;exitDx=0;exitDy=0;exitPerimeter=0;" edge="1" parent="1" source="hIh9DsLrqrpceg6YFJwU-3" target="hIh9DsLrqrpceg6YFJwU-8">
          <mxGeometry width="50" height="50" relative="1" as="geometry">
            <mxPoint x="913" y="-770" as="sourcePoint" />
            <mxPoint x="1260" y="-600" as="targetPoint" />
            <Array as="points">
              <mxPoint x="900" y="-570" />
            </Array>
          </mxGeometry>
        </mxCell>
        <mxCell id="gQEP2GHuCsxXEz0Sh5r--3" value="" style="endArrow=classic;html=1;rounded=0;exitX=0.667;exitY=0;exitDx=0;exitDy=0;entryX=0;entryY=0.5;entryDx=0;entryDy=0;exitPerimeter=0;" edge="1" parent="1" source="hIh9DsLrqrpceg6YFJwU-3" target="hIh9DsLrqrpceg6YFJwU-6">
          <mxGeometry width="50" height="50" relative="1" as="geometry">
            <mxPoint x="960" y="-820" as="sourcePoint" />
            <mxPoint x="1010" y="-870" as="targetPoint" />
            <Array as="points">
              <mxPoint x="940" y="-910" />
            </Array>
          </mxGeometry>
        </mxCell>
        <mxCell id="gQEP2GHuCsxXEz0Sh5r--5" value="" style="endArrow=classic;html=1;rounded=0;exitX=0.666;exitY=1.04;exitDx=0;exitDy=0;exitPerimeter=0;entryX=0.057;entryY=0.629;entryDx=0;entryDy=0;entryPerimeter=0;" edge="1" parent="1" source="hIh9DsLrqrpceg6YFJwU-3" target="hIh9DsLrqrpceg6YFJwU-10">
          <mxGeometry width="50" height="50" relative="1" as="geometry">
            <mxPoint x="940" y="-758" as="sourcePoint" />
            <mxPoint x="1135" y="-670" as="targetPoint" />
            <Array as="points">
              <mxPoint x="940" y="-670" />
            </Array>
          </mxGeometry>
        </mxCell>
        <mxCell id="gQEP2GHuCsxXEz0Sh5r--6" value="" style="endArrow=classic;html=1;rounded=0;exitX=1;exitY=0.5;exitDx=0;exitDy=0;entryX=-0.013;entryY=0.572;entryDx=0;entryDy=0;entryPerimeter=0;" edge="1" parent="1" source="hIh9DsLrqrpceg6YFJwU-3" target="hIh9DsLrqrpceg6YFJwU-7">
          <mxGeometry width="50" height="50" relative="1" as="geometry">
            <mxPoint x="1030" y="-710" as="sourcePoint" />
            <mxPoint x="1080" y="-760" as="targetPoint" />
          </mxGeometry>
        </mxCell>
        <mxCell id="gQEP2GHuCsxXEz0Sh5r--7" value="" style="endArrow=classic;html=1;rounded=0;exitX=1.011;exitY=0.552;exitDx=0;exitDy=0;exitPerimeter=0;entryX=-0.004;entryY=0.594;entryDx=0;entryDy=0;entryPerimeter=0;" edge="1" parent="1" source="hIh9DsLrqrpceg6YFJwU-5" target="hIh9DsLrqrpceg6YFJwU-14">
          <mxGeometry width="50" height="50" relative="1" as="geometry">
            <mxPoint x="1280" y="-940" as="sourcePoint" />
            <mxPoint x="1370" y="-1015" as="targetPoint" />
          </mxGeometry>
        </mxCell>
        <mxCell id="gQEP2GHuCsxXEz0Sh5r--8" value="" style="endArrow=classic;html=1;rounded=0;exitX=1.003;exitY=0.556;exitDx=0;exitDy=0;exitPerimeter=0;entryX=0;entryY=0.5;entryDx=0;entryDy=0;" edge="1" parent="1" source="hIh9DsLrqrpceg6YFJwU-6" target="hIh9DsLrqrpceg6YFJwU-15">
          <mxGeometry width="50" height="50" relative="1" as="geometry">
            <mxPoint x="1300" y="-850" as="sourcePoint" />
            <mxPoint x="1350" y="-900" as="targetPoint" />
          </mxGeometry>
        </mxCell>
        <mxCell id="gQEP2GHuCsxXEz0Sh5r--9" value="" style="endArrow=classic;html=1;rounded=0;exitX=0.99;exitY=0.453;exitDx=0;exitDy=0;exitPerimeter=0;entryX=0;entryY=0.5;entryDx=0;entryDy=0;" edge="1" parent="1" source="hIh9DsLrqrpceg6YFJwU-7" target="hIh9DsLrqrpceg6YFJwU-16">
          <mxGeometry width="50" height="50" relative="1" as="geometry">
            <mxPoint x="1300" y="-720" as="sourcePoint" />
            <mxPoint x="1350" y="-770" as="targetPoint" />
          </mxGeometry>
        </mxCell>
        <mxCell id="gQEP2GHuCsxXEz0Sh5r--10" value="" style="endArrow=classic;html=1;rounded=0;entryX=0;entryY=0.75;entryDx=0;entryDy=0;exitX=1;exitY=0.625;exitDx=0;exitDy=0;exitPerimeter=0;" edge="1" parent="1" source="hIh9DsLrqrpceg6YFJwU-10" target="hIh9DsLrqrpceg6YFJwU-17">
          <mxGeometry width="50" height="50" relative="1" as="geometry">
            <mxPoint x="1220" y="-670" as="sourcePoint" />
            <mxPoint x="1330" y="-670" as="targetPoint" />
          </mxGeometry>
        </mxCell>
        <mxCell id="gQEP2GHuCsxXEz0Sh5r--11" value="" style="endArrow=classic;html=1;rounded=0;exitX=1.03;exitY=0.536;exitDx=0;exitDy=0;exitPerimeter=0;entryX=0.017;entryY=0.583;entryDx=0;entryDy=0;entryPerimeter=0;" edge="1" parent="1" source="hIh9DsLrqrpceg6YFJwU-8" target="hIh9DsLrqrpceg6YFJwU-18">
          <mxGeometry width="50" height="50" relative="1" as="geometry">
            <mxPoint x="1220" y="-480" as="sourcePoint" />
            <mxPoint x="1270" y="-530" as="targetPoint" />
          </mxGeometry>
        </mxCell>
        <mxCell id="gQEP2GHuCsxXEz0Sh5r--12" value="Add Trainer Details" style="text;html=1;align=center;verticalAlign=middle;whiteSpace=wrap;rounded=0;" vertex="1" parent="1">
          <mxGeometry x="930" y="-1044" width="140" height="30" as="geometry" />
        </mxCell>
        <mxCell id="gQEP2GHuCsxXEz0Sh5r--13" value="Add Member Details" style="text;html=1;align=center;verticalAlign=middle;whiteSpace=wrap;rounded=0;" vertex="1" parent="1">
          <mxGeometry x="950" y="-938" width="140" height="30" as="geometry" />
        </mxCell>
        <mxCell id="gQEP2GHuCsxXEz0Sh5r--14" value="Collect Fee&amp;nbsp; Member" style="text;html=1;align=center;verticalAlign=middle;whiteSpace=wrap;rounded=0;" vertex="1" parent="1">
          <mxGeometry x="980" y="-810" width="140" height="30" as="geometry" />
        </mxCell>
        <mxCell id="gQEP2GHuCsxXEz0Sh5r--15" value="Check Trainer" style="text;html=1;align=center;verticalAlign=middle;whiteSpace=wrap;rounded=0;" vertex="1" parent="1">
          <mxGeometry x="960" y="-677" width="140" height="30" as="geometry" />
        </mxCell>
        <mxCell id="gQEP2GHuCsxXEz0Sh5r--16" value="" style="endArrow=classic;html=1;rounded=0;exitX=0.001;exitY=0.376;exitDx=0;exitDy=0;exitPerimeter=0;" edge="1" parent="1" source="hIh9DsLrqrpceg6YFJwU-10">
          <mxGeometry width="50" height="50" relative="1" as="geometry">
            <mxPoint x="920" y="-600" as="sourcePoint" />
            <mxPoint x="960" y="-760" as="targetPoint" />
            <Array as="points">
              <mxPoint x="960" y="-690" />
            </Array>
          </mxGeometry>
        </mxCell>
        <mxCell id="gQEP2GHuCsxXEz0Sh5r--17" value="Availability Status" style="text;html=1;align=center;verticalAlign=middle;whiteSpace=wrap;rounded=0;" vertex="1" parent="1">
          <mxGeometry x="961" y="-715" width="140" height="30" as="geometry" />
        </mxCell>
        <mxCell id="gQEP2GHuCsxXEz0Sh5r--18" value="Pay Salary to Trainer" style="text;html=1;align=center;verticalAlign=middle;whiteSpace=wrap;rounded=0;" vertex="1" parent="1">
          <mxGeometry x="920" y="-594.5" width="140" height="30" as="geometry" />
        </mxCell>
        <mxCell id="gQEP2GHuCsxXEz0Sh5r--19" value="Trainer Added" style="text;html=1;align=center;verticalAlign=middle;whiteSpace=wrap;rounded=0;" vertex="1" parent="1">
          <mxGeometry x="1260" y="-1044" width="80" height="30" as="geometry" />
        </mxCell>
        <mxCell id="gQEP2GHuCsxXEz0Sh5r--20" value="Member&amp;nbsp; Added" style="text;html=1;align=center;verticalAlign=middle;whiteSpace=wrap;rounded=0;" vertex="1" parent="1">
          <mxGeometry x="1260" y="-930" width="100" height="30" as="geometry" />
        </mxCell>
        <mxCell id="gQEP2GHuCsxXEz0Sh5r--21" value="Fees Details" style="text;html=1;align=center;verticalAlign=middle;whiteSpace=wrap;rounded=0;" vertex="1" parent="1">
          <mxGeometry x="1241" y="-820" width="100" height="30" as="geometry" />
        </mxCell>
        <mxCell id="gQEP2GHuCsxXEz0Sh5r--24" value="" style="endArrow=classic;html=1;rounded=0;entryX=0.982;entryY=0.376;entryDx=0;entryDy=0;entryPerimeter=0;exitX=0;exitY=0.25;exitDx=0;exitDy=0;" edge="1" parent="1" source="hIh9DsLrqrpceg6YFJwU-17" target="hIh9DsLrqrpceg6YFJwU-10">
          <mxGeometry width="50" height="50" relative="1" as="geometry">
            <mxPoint x="1220" y="-600" as="sourcePoint" />
            <mxPoint x="1270" y="-650" as="targetPoint" />
          </mxGeometry>
        </mxCell>
        <mxCell id="gQEP2GHuCsxXEz0Sh5r--25" value="Trainer and Member Details" style="text;html=1;align=center;verticalAlign=middle;whiteSpace=wrap;rounded=0;" vertex="1" parent="1">
          <mxGeometry x="1205" y="-677" width="190" height="30" as="geometry" />
        </mxCell>
        <mxCell id="gQEP2GHuCsxXEz0Sh5r--26" value="Trainer and Member Details" style="text;html=1;align=center;verticalAlign=middle;whiteSpace=wrap;rounded=0;" vertex="1" parent="1">
          <mxGeometry x="1215" y="-715" width="190" height="30" as="geometry" />
        </mxCell>
        <mxCell id="gQEP2GHuCsxXEz0Sh5r--27" value="Salary Details" style="text;html=1;align=center;verticalAlign=middle;whiteSpace=wrap;rounded=0;" vertex="1" parent="1">
          <mxGeometry x="1205" y="-590.5" width="190" height="30" as="geometry" />
        </mxCell>
      </root>
    </mxGraphModel>
  </diagram>
</mxfile>
